<svg xmlns="http://www.w3.org/2000/svg" xmlns:xlink="http://www.w3.org/1999/xlink" width="500" zoomAndPan="magnify" viewBox="0 0 375 374.999991" height="500" preserveAspectRatio="xMidYMid meet" version="1.0"><rect x="-37.5" width="450" fill="#ffffff" y="-37.499999" height="449.999989" fill-opacity="1"/><rect x="-37.5" width="450" fill="#ffffff" y="-37.499999" height="449.999989" fill-opacity="1"/><path fill="#ffffff" d="M 277.296875 86.488281 C 256.316406 76.773438 231.238281 79.296875 211.9375 90.914062 L 190.9375 136.792969 L 232.535156 173.011719 L 189 231.839844 L 204.933594 177.054688 L 151.628906 141.074219 L 167.324219 94.882812 C 147.476562 80.03125 119.453125 75.769531 96.273438 86.488281 C 61.5 102.621094 44.871094 143.835938 72.347656 192.476562 C 91.867188 227.066406 126.457031 253.152344 186.785156 299.890625 C 247.132812 253.152344 281.707031 227.085938 301.242188 192.476562 C 328.71875 143.835938 312.074219 102.621094 277.296875 86.488281 Z M 277.296875 86.488281 " fill-opacity="1" fill-rule="nonzero"/></svg>